:SAMPLES-PER-SECOND 30
:FRAME-RANGE 1-2045
:FULLY-SPECIFIED
:DEGREES
384
root  -17.1293 35.7622 39.0243 1.55248 15.5272 3.04636
RightUpLeg  -19.9767 -13.778 -14.5323
RightLeg  48.5631 -9.14111 -11.2484
RightFoot  -21.1195 1.40573 17.9844
RightToes  5.82063e-011 0 -3.6325e-017
Spine  14.6337 -2.15391 2.29706
Spine1  -0.436521 -0.277388 -6.9933
HEad  1.17402 -14.9766 2.76832
LeftShoulder1  2.42223 -2.7406 -32.7687
LeftArm  14.9679 -15.0014 -43.0018
LeftForeArm  12.8854 -36.6889 -7.57984
LeftHand  0.175289 -1.87502 -2.64851
RightShoulder  7.24647 21.5471 22.5433
RightArm  -33.3159 20.8459 4.94517
RightForeArm  -6.71503 3.73014 10.4482
RightHand  0.843807 1.74378 13.5385
LeftUpLeg  -0.363955 14.3699 26.378
LeftLeg  25.2427 9.59388 5.22813
LeftFoot  -0.649717 2.00353 -21.1579
LeftToes  -3.90176e-010 -2.48536e-010 1.05482e-011
385
root  -18.2966 35.6487 39.5495 1.68814 14.6663 2.20887
RightUpLeg  -20.6564 -17.0669 -11.8037
RightLeg  49.4853 -6.65221 -8.62576
RightFoot  -23.5875 1.66152 16.8782
RightToes  5.82063e-011 0 -3.6325e-017
Spine  15.3233 -2.69322 3.88546
Spine1  -0.171257 -0.471807 -6.46162
HEad  1.48403 -13.2045 2.83795
LeftShoulder1  2.601 -3.16314 -32.995
LeftArm  18.4298 -19.943 -43.4524
LeftForeArm  8.52865 -32.6882 -6.74567
LeftHand  0.152657 -1.69194 -2.36187
RightShoulder  7.52537 23.298 21.6042
RightArm  -35.6866 24.0166 4.6866
RightForeArm  -6.98463 3.90622 10.0082
RightHand  0.888486 1.84115 14.0552
LeftUpLeg  -4.75784 12.1468 26.429
LeftLeg  32.2136 9.0168 6.41615
LeftFoot  2.29343 1.39052 -11.7168
LeftToes  -3.90176e-010 -2.48536e-010 1.05482e-011
386
root  -19.3853 35.5577 40.0803 1.63511 13.7716 0.955058
RightUpLeg  -20.9219 -18.363 -8.49382
RightLeg  50.1278 -5.55572 -7.45701
RightFoot  -25.731 1.81709 15.6974
RightToes  5.82063e-011 0 -3.6325e-017
Spine  16.2829 -2.71356 6.49384
Spine1  -0.0330434 0.200345 -7.42508
HEad  0.891782 -13.1637 3.33566
LeftShoulder1  2.75504 -3.55658 -33.0064
LeftArm  24.2096 -25.9126 -45.3384
LeftForeArm  1.95991 -27.7909 -5.89355
LeftHand  0.129703 -1.51022 -2.05379
RightShoulder  7.73798 24.1078 21.5283
RightArm  -36.4951 25.835 4.57647
RightForeArm  -7.63135 5.64674 10.2231
RightHand  0.913257 1.86689 14.3937
LeftUpLeg  -10.7306 14.7625 25.9178
LeftLeg  42.9236 3.97717 4.33869
LeftFoot  -1.06189 1.20735 -13.3055
LeftToes  -3.90176e-010 -2.48536e-010 1.05482e-011
387
root  -20.4766 35.6442 40.7655 1.43583 12.9122 -0.122382
RightUpLeg  -19.9811 -19.2174 -5.36752
RightLeg  49.4383 -4.66359 -6.18595
RightFoot  -27.1877 1.65757 13.1913
RightToes  5.82063e-011 0 -3.6325e-017
Spine  16.8084 -2.41238 7.77391
Spine1  0.917048 0.876117 -7.91917
HEad  0.435402 -13.1789 3.66991
LeftShoulder1  2.87088 -3.9161 -32.681
LeftArm  28.4164 -30.9425 -46.9974
LeftForeArm  -5.41454 -24.5741 -5.52916
LeftHand  0.128296 -1.2777 -2.12397
RightShoulder  8.19451 25.6779 21.549
RightArm  -35.8783 26.8037 5.54341
RightForeArm  -6.95577 6.75498 10.3803
RightHand  0.950295 2.08496 14.522
LeftUpLeg  -16.6896 18.9242 23.4275
LeftLeg  52.3263 2.66815 4.16205
LeftFoot  -4.13693 0.768055 -11.7756
LeftToes  -3.90176e-010 -2.48536e-010 1.05482e-011
388
root  -21.6083 35.9283 41.5814 1.60138 13.1052 -0.831669
RightUpLeg  -18.1865 -20.8567 -2.54723
RightLeg  47.226 -4.52948 -5.57779
RightFoot  -27.9149 1.43609 11.136
RightToes  5.82063e-011 0 -3.6325e-017
Spine  17.0701 -2.00973 7.30044
Spine1  1.3473 0.999967 -7.5855
HEad  0.417987 -13.361 4.4826
LeftShoulder1  2.92936 -4.26444 -31.7005
LeftArm  29.5868 -35.2336 -48.5414
LeftForeArm  -9.97227 -21.6388 -6.49729
LeftHand  0.162174 -1.09942 -2.8098
RightShoulder  9.0607 27.4603 22.7485
RightArm  -33.6421 27.0756 6.34194
RightForeArm  -7.01005 6.97508 10.9498
RightHand  0.984825 2.18886 14.835
LeftUpLeg  -23.1455 23.1798 18.4465
LeftLeg  57.4666 2.34229 4.4765
LeftFoot  -7.16909 0.417199 -10.256
LeftToes  -3.90176e-010 -2.48536e-010 1.05482e-011
389
root  -22.7962 36.3662 42.4831 2.25064 14.0362 -1.45311
RightUpLeg  -16.1967 -22.551 0.505728
RightLeg  43.6848 -5.44416 -5.86606
RightFoot  -27.7412 1.29824 10.2969
RightToes  5.82063e-011 0 -3.6325e-017
Spine  17.1028 -1.37445 6.0894
Spine1  1.26887 1.10351 -7.45357
HEad  0.136912 -13.9409 6.1013
LeftShoulder1  2.98401 -4.68809 -30.4093
LeftArm  23.535 -39.7028 -49.793
LeftForeArm  -6.20874 -17.2917 -10.3989
LeftHand  0.163046 -0.91977 -2.92527
RightShoulder  10.0689 28.3632 25.1668
RightArm  -30.2291 26.9378 7.05177
RightForeArm  -7.53928 7.12206 11.7436
RightHand  1.02247 2.29337 15.1842
LeftUpLeg  -29.6722 26.5469 11.3151
LeftLeg  57.2325 2.66956 4.98333
LeftFoot  -9.44831 0.224676 -10.1603
LeftToes  -3.90176e-010 -2.48536e-010 1.05482e-011
390
root  -23.9952 36.8959 43.386 3.13412 15.3345 -1.86003
RightUpLeg  -14.7792 -25.2642 3.31541
RightLeg  40.3283 -5.30764 -5.10821
RightFoot  -25.763 0.910605 8.56858
RightToes  5.82063e-011 0 -3.6325e-017
Spine  17.0706 -0.678099 4.03392
Spine1  1.55505 1.20816 -7.31401
HEad  -0.772817 -14.6527 8.00529
LeftShoulder1  3.0844 -5.36396 -28.7388
LeftArm  13.8395 -44.2577 -50.3317
LeftForeArm  0.865411 -11.8731 -14.1164
LeftHand  0.149161 -0.622566 -2.83393
RightShoulder  10.7037 28.878 26.662
RightArm  -26.9743 26.98 8.20188
RightForeArm  -6.94949 6.90559 12.4143
RightHand  1.01784 2.48444 14.7341
LeftUpLeg  -34.9672 28.4239 2.89844
LeftLeg  51.6478 3.03411 4.56339
LeftFoot  -11.4221 0.0601292 -11.4657
LeftToes  -3.90176e-010 -2.48536e-010 1.05482e-011
